<svg xmlns="http://www.w3.org/2000/svg" viewBox="0 0 133.17 133.17"><defs><style>.cls-1{fill-rule:evenodd;}</style></defs>
<g id="Layer_2" data-name="Layer 2"><g id="Layer_1-2" data-name="Layer 1">
<path class="cls-1" fill="#C8202B" d="M55.58,55.14a14.58,14.58,0,0,1,29.15,0,14.21,14.21,0,0,1-5.86,11.48,15.16,15.16,0,0,1,7.51,12.94c0,8.46-7.27,15.32-16.22,15.32S53.94,88,53.94,79.56a15.13,15.13,0,0,1,7.51-12.94A14.22,14.22,0,0,1,55.58,55.14Zm8.74,1c0,3.94,2.61,7.13,5.84,7.13S76,60.11,76,56.17s-2.61-7.12-5.83-7.12S64.32,52.24,64.32,56.17ZM62.71,79.24c0,4.76,3.33,8.62,7.45,8.62S77.6,84,77.6,79.24s-3.33-8.63-7.44-8.63S62.71,74.47,62.71,79.24ZM20.9,50.93V42.06H41.77v43h9.14V94H21.49V85.1H32.9V50.93Zm-9,15.66a54.73,54.73,0,1,1,54.73,54.72A54.73,54.73,0,0,1,11.86,66.59ZM0,66.59a66.59,66.59,0,1,1,66.59,66.58A66.59,66.59,0,0,1,0,66.59ZM99.17,52.05H108V62.32h10.27V71.2H108V81.47H99.17V71.2H88.9V62.32H99.17Z"/></g></g></svg>