<svg width="93" height="93" viewBox="0 0 93 93" fill="none" xmlns="http://www.w3.org/2000/svg">
<rect x="3" y="3" width="87" height="87" rx="43.5" stroke="black" stroke-width="5"/>
<path d="M29.2934 66.3312C27.0065 66.3312 25.3851 65.6827 24.4294 64.3856C23.5078 63.0544 23.047 61.0576 23.047 58.3952C23.047 56.6885 23.3201 54.1285 23.8662 50.7152C24.4465 47.2677 25.2486 42.7109 26.2726 37.0448L23.559 31.5664C25.1633 30.5424 26.8699 29.672 28.679 28.9552C30.4881 28.2043 32.2971 27.8288 34.1062 27.8288C35.7446 27.8288 37.1782 28.0848 38.407 28.5968C39.6699 29.0747 40.7622 30.0133 41.6838 31.4128C42.6054 32.7781 43.3734 34.792 43.9878 37.4544C44.6363 40.0827 45.1654 43.5472 45.575 47.848H46.1894C47.0086 45.4928 48.0326 43.1376 49.2614 40.7824C50.4902 38.4272 51.9579 36.2768 53.6646 34.3312C55.3713 32.3856 57.351 30.8325 59.6038 29.672C61.8907 28.4773 64.4849 27.88 67.3862 27.88C68.9905 27.88 70.0486 28.3579 70.5606 29.3136C71.0726 30.2352 71.3286 31.3445 71.3286 32.6416C71.3286 33.1877 71.2262 34.0752 71.0214 35.304C70.8507 36.4987 70.6118 37.8981 70.3046 39.5024C69.9974 41.0725 69.6731 42.728 69.3318 44.4688C69.0246 46.1755 68.7174 47.848 68.4102 49.4864C68.103 51.0907 67.847 52.5243 67.6422 53.7872C67.4715 55.016 67.3862 55.9547 67.3862 56.6032C67.3862 58.344 67.5057 59.8117 67.7446 61.0064C68.0177 62.2011 68.4102 63.208 68.9222 64.0272C66.8742 65.5632 64.7579 66.3312 62.5734 66.3312C60.2865 66.3312 58.6651 65.6827 57.7094 64.3856C56.7878 63.0544 56.327 61.0576 56.327 58.3952C56.327 56.9275 56.5318 54.8283 56.9414 52.0976C57.3851 49.3669 57.9825 45.8512 58.7334 41.5504H57.9142C56.4465 43.496 55.1665 45.6805 54.0742 48.104C52.9819 50.4933 52.1115 52.8827 51.463 55.272C50.8486 57.6272 50.439 59.7264 50.2342 61.5696C49.3809 62.3547 48.4422 62.952 47.4182 63.3616C46.4283 63.7371 45.4385 63.9248 44.4486 63.9248C43.6294 63.9248 42.8614 63.6176 42.1446 63.0032C41.4278 62.3547 40.7622 61.2283 40.1478 59.624C39.5334 58.0197 38.9873 55.7669 38.5094 52.8656C38.0657 49.9301 37.7073 46.1584 37.4342 41.5504H36.615C36.1713 43.496 35.7617 45.4928 35.3862 47.5408C35.0107 49.5547 34.7035 51.3808 34.4646 53.0192C34.2257 54.6576 34.1062 55.8523 34.1062 56.6032C34.1062 58.344 34.2257 59.8117 34.4646 61.0064C34.7377 62.2011 35.1302 63.208 35.6422 64.0272C33.5942 65.5632 31.4779 66.3312 29.2934 66.3312Z" fill="black"/>
</svg>
